<?xml version="1.0" encoding="utf-8"?>
<svg version="1.1" xmlns:xlink="http://www.w3.org/1999/xlink" width="12px" height="12px" viewBox="365 5746  12 12" xmlns="http://www.w3.org/2000/svg">
  <path d="M 371 5746  C 374.36 5746  377 5748.64  377 5752  C 377 5755.36  374.36 5758  371 5758  C 367.64 5758  365 5755.36  365 5752  C 365 5748.64  367.64 5746  371 5746  Z " fill-rule="nonzero" fill="#ffffff" stroke="none" />
  <path d="M 371 5746.5  C 374.08 5746.5  376.5 5748.92  376.5 5752  C 376.5 5755.08  374.08 5757.5  371 5757.5  C 367.92 5757.5  365.5 5755.08  365.5 5752  C 365.5 5748.92  367.92 5746.5  371 5746.5  Z " stroke-width="1" stroke="#797979" fill="none" />
  <path d="M 371 5755  C 369.32 5755  368 5753.68  368 5752  C 368 5750.32  369.32 5749  371 5749  C 372.68 5749  374 5750.32  374 5752  C 374 5753.68  372.68 5755  371 5755  " fill-rule="nonzero" fill="#797979" stroke="none" />
</svg>