<?xml version="1.0" encoding="utf-8"?>
<svg version="1.1" xmlns:xlink="http://www.w3.org/1999/xlink" width="12px" height="12px" viewBox="488 5746  12 12" xmlns="http://www.w3.org/2000/svg">
  <path d="M 494 5746  C 497.36 5746  500 5748.64  500 5752  C 500 5755.36  497.36 5758  494 5758  C 490.64 5758  488 5755.36  488 5752  C 488 5748.64  490.64 5746  494 5746  Z " fill-rule="nonzero" fill="#f0f0f0" stroke="none" />
  <path d="M 494 5746.5  C 497.08 5746.5  499.5 5748.92  499.5 5752  C 499.5 5755.08  497.08 5757.5  494 5757.5  C 490.92 5757.5  488.5 5755.08  488.5 5752  C 488.5 5748.92  490.92 5746.5  494 5746.5  Z " stroke-width="1" stroke="#797979" fill="none" />
  <path d="M 494 5755  C 492.32 5755  491 5753.68  491 5752  C 491 5750.32  492.32 5749  494 5749  C 495.68 5749  497 5750.32  497 5752  C 497 5753.68  495.68 5755  494 5755  " fill-rule="nonzero" fill="#797979" stroke="none" />
</svg>