<?xml version="1.0" encoding="utf-8"?>
<svg version="1.1" xmlns:xlink="http://www.w3.org/1999/xlink" width="10px" height="10px" xmlns="http://www.w3.org/2000/svg">
  <g transform="matrix(1 0 0 1 -256 -7034 )">
    <path d="M 261 7034  C 263.8 7034  266 7036.2  266 7039  C 266 7041.8  263.8 7044  261 7044  C 258.2 7044  256 7041.8  256 7039  C 256 7036.2  258.2 7034  261 7034  Z " fill-rule="nonzero" fill="#ffffff" stroke="none" />
    <path d="M 261 7034.5  C 263.52 7034.5  265.5 7036.48  265.5 7039  C 265.5 7041.52  263.52 7043.5  261 7043.5  C 258.48 7043.5  256.5 7041.52  256.5 7039  C 256.5 7036.48  258.48 7034.5  261 7034.5  Z " stroke-width="1" stroke="#797979" fill="none" />
  </g>
</svg>