<?xml version="1.0" encoding="utf-8"?>
<svg version="1.1" xmlns:xlink="http://www.w3.org/1999/xlink" width="12px" height="12px" viewBox="1551 6882  12 12" xmlns="http://www.w3.org/2000/svg">
  <path d="M 1557 6882  C 1560.36 6882  1563 6884.64  1563 6888  C 1563 6891.36  1560.36 6894  1557 6894  C 1553.64 6894  1551 6891.36  1551 6888  C 1551 6884.64  1553.64 6882  1557 6882  Z " fill-rule="nonzero" fill="#ffffff" stroke="none" />
  <path d="M 1557 6882.5  C 1560.08 6882.5  1562.5 6884.92  1562.5 6888  C 1562.5 6891.08  1560.08 6893.5  1557 6893.5  C 1553.92 6893.5  1551.5 6891.08  1551.5 6888  C 1551.5 6884.92  1553.92 6882.5  1557 6882.5  Z " stroke-width="1" stroke="#797979" fill="none" />
  <path d="M 1557 6891  C 1555.32 6891  1554 6889.68  1554 6888  C 1554 6886.32  1555.32 6885  1557 6885  C 1558.68 6885  1560 6886.32  1560 6888  C 1560 6889.68  1558.68 6891  1557 6891  " fill-rule="nonzero" fill="#797979" stroke="none" />
</svg>