<?xml version="1.0" encoding="utf-8"?>
<svg version="1.1" xmlns:xlink="http://www.w3.org/1999/xlink" width="12px" height="12px" viewBox="1398 6920  12 12" xmlns="http://www.w3.org/2000/svg">
  <path d="M 1404 6920  C 1407.36 6920  1410 6922.64  1410 6926  C 1410 6929.36  1407.36 6932  1404 6932  C 1400.64 6932  1398 6929.36  1398 6926  C 1398 6922.64  1400.64 6920  1404 6920  Z " fill-rule="nonzero" fill="#ffffff" stroke="none" />
  <path d="M 1404 6920.5  C 1407.08 6920.5  1409.5 6922.92  1409.5 6926  C 1409.5 6929.08  1407.08 6931.5  1404 6931.5  C 1400.92 6931.5  1398.5 6929.08  1398.5 6926  C 1398.5 6922.92  1400.92 6920.5  1404 6920.5  Z " stroke-width="1" stroke="#797979" fill="none" />
  <path d="M 1404 6929  C 1402.32 6929  1401 6927.68  1401 6926  C 1401 6924.32  1402.32 6923  1404 6923  C 1405.68 6923  1407 6924.32  1407 6926  C 1407 6927.68  1405.68 6929  1404 6929  " fill-rule="nonzero" fill="#797979" stroke="none" />
</svg>