<?xml version="1.0" encoding="utf-8"?>
<svg version="1.1" xmlns:xlink="http://www.w3.org/1999/xlink" width="12px" height="12px" viewBox="1473 6920  12 12" xmlns="http://www.w3.org/2000/svg">
  <path d="M 1479 6920  C 1482.36 6920  1485 6922.64  1485 6926  C 1485 6929.36  1482.36 6932  1479 6932  C 1475.64 6932  1473 6929.36  1473 6926  C 1473 6922.64  1475.64 6920  1479 6920  Z " fill-rule="nonzero" fill="#ffffff" stroke="none" />
  <path d="M 1479 6920.5  C 1482.08 6920.5  1484.5 6922.92  1484.5 6926  C 1484.5 6929.08  1482.08 6931.5  1479 6931.5  C 1475.92 6931.5  1473.5 6929.08  1473.5 6926  C 1473.5 6922.92  1475.92 6920.5  1479 6920.5  Z " stroke-width="1" stroke="#797979" fill="none" />
  <path d="M 1479 6929  C 1477.32 6929  1476 6927.68  1476 6926  C 1476 6924.32  1477.32 6923  1479 6923  C 1480.68 6923  1482 6924.32  1482 6926  C 1482 6927.68  1480.68 6929  1479 6929  " fill-rule="nonzero" fill="#797979" stroke="none" />
</svg>