<?xml version="1.0" encoding="utf-8"?>
<svg version="1.1" xmlns:xlink="http://www.w3.org/1999/xlink" width="12px" height="12px" viewBox="1551 6920  12 12" xmlns="http://www.w3.org/2000/svg">
  <path d="M 1557 6920  C 1560.36 6920  1563 6922.64  1563 6926  C 1563 6929.36  1560.36 6932  1557 6932  C 1553.64 6932  1551 6929.36  1551 6926  C 1551 6922.64  1553.64 6920  1557 6920  Z " fill-rule="nonzero" fill="#f0f0f0" stroke="none" />
  <path d="M 1557 6920.5  C 1560.08 6920.5  1562.5 6922.92  1562.5 6926  C 1562.5 6929.08  1560.08 6931.5  1557 6931.5  C 1553.92 6931.5  1551.5 6929.08  1551.5 6926  C 1551.5 6922.92  1553.92 6920.5  1557 6920.5  Z " stroke-width="1" stroke="#797979" fill="none" />
  <path d="M 1557 6929  C 1555.32 6929  1554 6927.68  1554 6926  C 1554 6924.32  1555.32 6923  1557 6923  C 1558.68 6923  1560 6924.32  1560 6926  C 1560 6927.68  1558.68 6929  1557 6929  " fill-rule="nonzero" fill="#797979" stroke="none" />
</svg>