<?xml version="1.0" encoding="utf-8"?>
<svg version="1.1" xmlns:xlink="http://www.w3.org/1999/xlink" width="12px" height="12px" viewBox="1398 6958  12 12" xmlns="http://www.w3.org/2000/svg">
  <path d="M 1404 6958  C 1407.36 6958  1410 6960.64  1410 6964  C 1410 6967.36  1407.36 6970  1404 6970  C 1400.64 6970  1398 6967.36  1398 6964  C 1398 6960.64  1400.64 6958  1404 6958  Z " fill-rule="nonzero" fill="#f0f0f0" stroke="none" />
  <path d="M 1404 6958.5  C 1407.08 6958.5  1409.5 6960.92  1409.5 6964  C 1409.5 6967.08  1407.08 6969.5  1404 6969.5  C 1400.92 6969.5  1398.5 6967.08  1398.5 6964  C 1398.5 6960.92  1400.92 6958.5  1404 6958.5  Z " stroke-width="1" stroke="#797979" fill="none" />
  <path d="M 1404 6967  C 1402.32 6967  1401 6965.68  1401 6964  C 1401 6962.32  1402.32 6961  1404 6961  C 1405.68 6961  1407 6962.32  1407 6964  C 1407 6965.68  1405.68 6967  1404 6967  " fill-rule="nonzero" fill="#797979" stroke="none" />
</svg>