<?xml version="1.0" encoding="utf-8"?>
<svg version="1.1" xmlns:xlink="http://www.w3.org/1999/xlink" width="12px" height="12px" viewBox="1473 6958  12 12" xmlns="http://www.w3.org/2000/svg">
  <path d="M 1479 6958  C 1482.36 6958  1485 6960.64  1485 6964  C 1485 6967.36  1482.36 6970  1479 6970  C 1475.64 6970  1473 6967.36  1473 6964  C 1473 6960.64  1475.64 6958  1479 6958  Z " fill-rule="nonzero" fill="#f0f0f0" stroke="none" />
  <path d="M 1479 6958.5  C 1482.08 6958.5  1484.5 6960.92  1484.5 6964  C 1484.5 6967.08  1482.08 6969.5  1479 6969.5  C 1475.92 6969.5  1473.5 6967.08  1473.5 6964  C 1473.5 6960.92  1475.92 6958.5  1479 6958.5  Z " stroke-width="1" stroke="#797979" fill="none" />
  <path d="M 1479 6967  C 1477.32 6967  1476 6965.68  1476 6964  C 1476 6962.32  1477.32 6961  1479 6961  C 1480.68 6961  1482 6962.32  1482 6964  C 1482 6965.68  1480.68 6967  1479 6967  " fill-rule="nonzero" fill="#797979" stroke="none" />
</svg>