<?xml version="1.0" encoding="utf-8"?>
<svg version="1.1" xmlns:xlink="http://www.w3.org/1999/xlink" width="12px" height="12px" viewBox="1551 6996  12 12" xmlns="http://www.w3.org/2000/svg">
  <path d="M 1557 6996  C 1560.36 6996  1563 6998.64  1563 7002  C 1563 7005.36  1560.36 7008  1557 7008  C 1553.64 7008  1551 7005.36  1551 7002  C 1551 6998.64  1553.64 6996  1557 6996  Z " fill-rule="nonzero" fill="#f0f0f0" stroke="none" />
  <path d="M 1557 6996.5  C 1560.08 6996.5  1562.5 6998.92  1562.5 7002  C 1562.5 7005.08  1560.08 7007.5  1557 7007.5  C 1553.92 7007.5  1551.5 7005.08  1551.5 7002  C 1551.5 6998.92  1553.92 6996.5  1557 6996.5  Z " stroke-width="1" stroke="#797979" fill="none" />
  <path d="M 1557 7005  C 1555.32 7005  1554 7003.68  1554 7002  C 1554 7000.32  1555.32 6999  1557 6999  C 1558.68 6999  1560 7000.32  1560 7002  C 1560 7003.68  1558.68 7005  1557 7005  " fill-rule="nonzero" fill="#797979" stroke="none" />
</svg>