<?xml version="1.0" encoding="utf-8"?>
<svg version="1.1" xmlns:xlink="http://www.w3.org/1999/xlink" width="12px" height="12px" viewBox="1398 7932  12 12" xmlns="http://www.w3.org/2000/svg">
  <path d="M 1404 7932  C 1407.36 7932  1410 7934.64  1410 7938  C 1410 7941.36  1407.36 7944  1404 7944  C 1400.64 7944  1398 7941.36  1398 7938  C 1398 7934.64  1400.64 7932  1404 7932  Z " fill-rule="nonzero" fill="#f0f0f0" stroke="none" />
  <path d="M 1404 7932.5  C 1407.08 7932.5  1409.5 7934.92  1409.5 7938  C 1409.5 7941.08  1407.08 7943.5  1404 7943.5  C 1400.92 7943.5  1398.5 7941.08  1398.5 7938  C 1398.5 7934.92  1400.92 7932.5  1404 7932.5  Z " stroke-width="1" stroke="#797979" fill="none" />
  <path d="M 1404 7941  C 1402.32 7941  1401 7939.68  1401 7938  C 1401 7936.32  1402.32 7935  1404 7935  C 1405.68 7935  1407 7936.32  1407 7938  C 1407 7939.68  1405.68 7941  1404 7941  " fill-rule="nonzero" fill="#797979" stroke="none" />
</svg>