<?xml version="1.0" encoding="utf-8"?>
<svg version="1.1" xmlns:xlink="http://www.w3.org/1999/xlink" width="12px" height="12px" viewBox="1473 7932  12 12" xmlns="http://www.w3.org/2000/svg">
  <path d="M 1479 7932  C 1482.36 7932  1485 7934.64  1485 7938  C 1485 7941.36  1482.36 7944  1479 7944  C 1475.64 7944  1473 7941.36  1473 7938  C 1473 7934.64  1475.64 7932  1479 7932  Z " fill-rule="nonzero" fill="#ffffff" stroke="none" />
  <path d="M 1479 7932.5  C 1482.08 7932.5  1484.5 7934.92  1484.5 7938  C 1484.5 7941.08  1482.08 7943.5  1479 7943.5  C 1475.92 7943.5  1473.5 7941.08  1473.5 7938  C 1473.5 7934.92  1475.92 7932.5  1479 7932.5  Z " stroke-width="1" stroke="#797979" fill="none" />
  <path d="M 1479 7941  C 1477.32 7941  1476 7939.68  1476 7938  C 1476 7936.32  1477.32 7935  1479 7935  C 1480.68 7935  1482 7936.32  1482 7938  C 1482 7939.68  1480.68 7941  1479 7941  " fill-rule="nonzero" fill="#797979" stroke="none" />
</svg>