<?xml version="1.0" encoding="utf-8"?>
<svg version="1.1" xmlns:xlink="http://www.w3.org/1999/xlink" width="12px" height="12px" viewBox="1398 7970  12 12" xmlns="http://www.w3.org/2000/svg">
  <path d="M 1404 7970  C 1407.36 7970  1410 7972.64  1410 7976  C 1410 7979.36  1407.36 7982  1404 7982  C 1400.64 7982  1398 7979.36  1398 7976  C 1398 7972.64  1400.64 7970  1404 7970  Z " fill-rule="nonzero" fill="#f0f0f0" stroke="none" />
  <path d="M 1404 7970.5  C 1407.08 7970.5  1409.5 7972.92  1409.5 7976  C 1409.5 7979.08  1407.08 7981.5  1404 7981.5  C 1400.92 7981.5  1398.5 7979.08  1398.5 7976  C 1398.5 7972.92  1400.92 7970.5  1404 7970.5  Z " stroke-width="1" stroke="#797979" fill="none" />
  <path d="M 1404 7979  C 1402.32 7979  1401 7977.68  1401 7976  C 1401 7974.32  1402.32 7973  1404 7973  C 1405.68 7973  1407 7974.32  1407 7976  C 1407 7977.68  1405.68 7979  1404 7979  " fill-rule="nonzero" fill="#797979" stroke="none" />
</svg>