<?xml version="1.0" encoding="utf-8"?>
<svg version="1.1" xmlns:xlink="http://www.w3.org/1999/xlink" width="12px" height="12px" viewBox="1551 7970  12 12" xmlns="http://www.w3.org/2000/svg">
  <path d="M 1557 7970  C 1560.36 7970  1563 7972.64  1563 7976  C 1563 7979.36  1560.36 7982  1557 7982  C 1553.64 7982  1551 7979.36  1551 7976  C 1551 7972.64  1553.64 7970  1557 7970  Z " fill-rule="nonzero" fill="#ffffff" stroke="none" />
  <path d="M 1557 7970.5  C 1560.08 7970.5  1562.5 7972.92  1562.5 7976  C 1562.5 7979.08  1560.08 7981.5  1557 7981.5  C 1553.92 7981.5  1551.5 7979.08  1551.5 7976  C 1551.5 7972.92  1553.92 7970.5  1557 7970.5  Z " stroke-width="1" stroke="#797979" fill="none" />
  <path d="M 1557 7979  C 1555.32 7979  1554 7977.68  1554 7976  C 1554 7974.32  1555.32 7973  1557 7973  C 1558.68 7973  1560 7974.32  1560 7976  C 1560 7977.68  1558.68 7979  1557 7979  " fill-rule="nonzero" fill="#797979" stroke="none" />
</svg>