<?xml version="1.0" encoding="utf-8"?>
<svg version="1.1" xmlns:xlink="http://www.w3.org/1999/xlink" width="12px" height="12px" viewBox="1473 8008  12 12" xmlns="http://www.w3.org/2000/svg">
  <path d="M 1479 8008  C 1482.36 8008  1485 8010.64  1485 8014  C 1485 8017.36  1482.36 8020  1479 8020  C 1475.64 8020  1473 8017.36  1473 8014  C 1473 8010.64  1475.64 8008  1479 8008  Z " fill-rule="nonzero" fill="#f0f0f0" stroke="none" />
  <path d="M 1479 8008.5  C 1482.08 8008.5  1484.5 8010.92  1484.5 8014  C 1484.5 8017.08  1482.08 8019.5  1479 8019.5  C 1475.92 8019.5  1473.5 8017.08  1473.5 8014  C 1473.5 8010.92  1475.92 8008.5  1479 8008.5  Z " stroke-width="1" stroke="#797979" fill="none" />
  <path d="M 1479 8017  C 1477.32 8017  1476 8015.68  1476 8014  C 1476 8012.32  1477.32 8011  1479 8011  C 1480.68 8011  1482 8012.32  1482 8014  C 1482 8015.68  1480.68 8017  1479 8017  " fill-rule="nonzero" fill="#797979" stroke="none" />
</svg>