<?xml version="1.0" encoding="utf-8"?>
<svg version="1.1" xmlns:xlink="http://www.w3.org/1999/xlink" width="12px" height="12px" viewBox="1398 8046  12 12" xmlns="http://www.w3.org/2000/svg">
  <path d="M 1404 8046  C 1407.36 8046  1410 8048.64  1410 8052  C 1410 8055.36  1407.36 8058  1404 8058  C 1400.64 8058  1398 8055.36  1398 8052  C 1398 8048.64  1400.64 8046  1404 8046  Z " fill-rule="nonzero" fill="#f0f0f0" stroke="none" />
  <path d="M 1404 8046.5  C 1407.08 8046.5  1409.5 8048.92  1409.5 8052  C 1409.5 8055.08  1407.08 8057.5  1404 8057.5  C 1400.92 8057.5  1398.5 8055.08  1398.5 8052  C 1398.5 8048.92  1400.92 8046.5  1404 8046.5  Z " stroke-width="1" stroke="#797979" fill="none" />
  <path d="M 1404 8055  C 1402.32 8055  1401 8053.68  1401 8052  C 1401 8050.32  1402.32 8049  1404 8049  C 1405.68 8049  1407 8050.32  1407 8052  C 1407 8053.68  1405.68 8055  1404 8055  " fill-rule="nonzero" fill="#797979" stroke="none" />
</svg>