<?xml version="1.0" encoding="utf-8"?>
<svg version="1.1" xmlns:xlink="http://www.w3.org/1999/xlink" width="12px" height="12px" viewBox="1551 8046  12 12" xmlns="http://www.w3.org/2000/svg">
  <path d="M 1557 8046  C 1560.36 8046  1563 8048.64  1563 8052  C 1563 8055.36  1560.36 8058  1557 8058  C 1553.64 8058  1551 8055.36  1551 8052  C 1551 8048.64  1553.64 8046  1557 8046  Z " fill-rule="nonzero" fill="#f0f0f0" stroke="none" />
  <path d="M 1557 8046.5  C 1560.08 8046.5  1562.5 8048.92  1562.5 8052  C 1562.5 8055.08  1560.08 8057.5  1557 8057.5  C 1553.92 8057.5  1551.5 8055.08  1551.5 8052  C 1551.5 8048.92  1553.92 8046.5  1557 8046.5  Z " stroke-width="1" stroke="#797979" fill="none" />
  <path d="M 1557 8055  C 1555.32 8055  1554 8053.68  1554 8052  C 1554 8050.32  1555.32 8049  1557 8049  C 1558.68 8049  1560 8050.32  1560 8052  C 1560 8053.68  1558.68 8055  1557 8055  " fill-rule="nonzero" fill="#797979" stroke="none" />
</svg>