<?xml version="1.0" encoding="utf-8"?>
<svg version="1.1" xmlns:xlink="http://www.w3.org/1999/xlink" width="12px" height="12px" viewBox="222 10116  12 12" xmlns="http://www.w3.org/2000/svg">
  <path d="M 228 10116  C 231.36 10116  234 10118.64  234 10122  C 234 10125.36  231.36 10128  228 10128  C 224.64 10128  222 10125.36  222 10122  C 222 10118.64  224.64 10116  228 10116  Z " fill-rule="nonzero" fill="#f0f0f0" stroke="none" />
  <path d="M 228 10116.5  C 231.08 10116.5  233.5 10118.92  233.5 10122  C 233.5 10125.08  231.08 10127.5  228 10127.5  C 224.92 10127.5  222.5 10125.08  222.5 10122  C 222.5 10118.92  224.92 10116.5  228 10116.5  Z " stroke-width="1" stroke="#797979" fill="none" />
  <path d="M 228 10125  C 226.32 10125  225 10123.68  225 10122  C 225 10120.32  226.32 10119  228 10119  C 229.68 10119  231 10120.32  231 10122  C 231 10123.68  229.68 10125  228 10125  " fill-rule="nonzero" fill="#797979" stroke="none" />
</svg>