<?xml version="1.0" encoding="utf-8"?>
<svg version="1.1" xmlns:xlink="http://www.w3.org/1999/xlink" width="15px" height="15px" xmlns="http://www.w3.org/2000/svg">
  <g transform="matrix(1 0 0 1 -436 -9155 )">
    <path d="M 443.5 9155  C 447.7 9155  451 9158.3  451 9162.5  C 451 9166.7  447.7 9170  443.5 9170  C 439.3 9170  436 9166.7  436 9162.5  C 436 9158.3  439.3 9155  443.5 9155  Z " fill-rule="nonzero" fill="#d9001b" stroke="none" />
    <path d="M 443.5 9155.5  C 447.42 9155.5  450.5 9158.58  450.5 9162.5  C 450.5 9166.42  447.42 9169.5  443.5 9169.5  C 439.58 9169.5  436.5 9166.42  436.5 9162.5  C 436.5 9158.58  439.58 9155.5  443.5 9155.5  Z " stroke-width="1" stroke="#797979" fill="none" />
  </g>
</svg>