<?xml version="1.0" encoding="utf-8"?>
<svg version="1.1" xmlns:xlink="http://www.w3.org/1999/xlink" width="12px" height="12px" viewBox="106 2180.5  12 12" xmlns="http://www.w3.org/2000/svg">
  <path d="M 112 2180.5  C 115.36 2180.5  118 2183.14  118 2186.5  C 118 2189.86  115.36 2192.5  112 2192.5  C 108.64 2192.5  106 2189.86  106 2186.5  C 106 2183.14  108.64 2180.5  112 2180.5  Z " fill-rule="nonzero" fill="#ffffff" stroke="none" />
  <path d="M 112 2181  C 115.08 2181  117.5 2183.42  117.5 2186.5  C 117.5 2189.58  115.08 2192  112 2192  C 108.92 2192  106.5 2189.58  106.5 2186.5  C 106.5 2183.42  108.92 2181  112 2181  Z " stroke-width="1" stroke="#797979" fill="none" />
  <path d="M 112 2189.5  C 110.32 2189.5  109 2188.18  109 2186.5  C 109 2184.82  110.32 2183.5  112 2183.5  C 113.68 2183.5  115 2184.82  115 2186.5  C 115 2188.18  113.68 2189.5  112 2189.5  " fill-rule="nonzero" fill="#797979" stroke="none" />
</svg>